<?xml version="1.0" standalone="no"?>
<!DOCTYPE svg PUBLIC "-//W3C//DTD SVG 20010904//EN"
 "http://www.w3.org/TR/2001/REC-SVG-20010904/DTD/svg10.dtd">
<svg version="1.0" xmlns="http://www.w3.org/2000/svg"
 width="253.000000pt" height="244.000000pt" viewBox="0 0 253.000000 244.000000"
 preserveAspectRatio="xMidYMid meet">
<metadata>
Created by potrace 1.15, written by Peter Selinger 2001-2017
</metadata>
<g transform="translate(0.000000,244.000000) scale(0.100000,-0.100000)"
fill="#000000" stroke="none">
<path d="M1275 2433 c-201 -26 -404 -86 -568 -170 -366 -187 -584 -482 -679
-917 -31 -140 -33 -484 -4 -590 59 -218 172 -381 351 -508 96 -68 187 -113
324 -158 179 -60 313 -81 546 -87 227 -6 324 6 479 58 432 144 701 480 785
978 27 157 29 454 5 581 -81 429 -381 720 -827 805 -73 14 -328 19 -412 8z
m387 -522 c156 -61 235 -183 258 -401 5 -52 10 -296 10 -542 l0 -448 -215 0
-215 0 0 471 c0 536 1 528 -78 529 -75 0 -92 -35 -92 -191 l0 -109 60 0 60 0
0 -185 0 -185 -60 0 -60 0 0 -165 0 -165 -210 0 -210 0 0 498 c0 540 1 556 57
672 32 65 121 158 183 191 94 48 154 59 310 56 121 -3 154 -7 202 -26z"/>
</g>
</svg>
